<?xml version="1.0" encoding="UTF-8" standalone="no"?>
<!DOCTYPE svg PUBLIC "-//W3C//DTD SVG 1.1//EN"
 "http://www.w3.org/Graphics/SVG/1.1/DTD/svg11.dtd">
<!-- Generated by graphviz version 14.1.4 (20260321.0153)
 -->
<!-- Pages: 1 -->
<svg width="246pt" height="382pt"
 viewBox="0.00 0.00 246.00 382.00" xmlns="http://www.w3.org/2000/svg" xmlns:xlink="http://www.w3.org/1999/xlink">
<g id="graph0" class="graph" transform="scale(1 1) rotate(0) translate(4 377.93)">
<polygon fill="white" stroke="none" points="-4,4 -4,-377.93 241.6,-377.93 241.6,4 -4,4"/>
<!-- 0 -->
<g id="node1" class="node">
<title>0</title>
<g id="a_node1"><a xlink:title="&#39;&#10; &#160;&#160;&#160;&#160;&#160;&#160;&#160;Cria uma tabela hash vazia com a capacidade indicada.&#10; &#160;&#160;&#160;&#160;&#160;&#160;&#160;&#39;&#10;">
<ellipse fill="none" stroke="green" cx="116.15" cy="-344.94" rx="49.5" ry="28.99"/>
<text xml:space="preserve" text-anchor="middle" x="116.15" y="-348.14" font-family="Times New Roman,serif" font-size="14.00">0 BB</text>
<text xml:space="preserve" text-anchor="middle" x="116.15" y="-331.64" font-family="Times New Roman,serif" font-size="14.00">Expr (+0)</text>
</a>
</g>
</g>
<!-- 1 -->
<g id="node2" class="node">
<title>1</title>
<g id="a_node2"><a xlink:title="if capacidade &lt;= 0:&#10; &#160;&#160;&#160;raise ValueError(&#39;A capacidade deve ser maior que zero.&#39;)&#10;">
<ellipse fill="none" stroke="green" cx="116.15" cy="-249.96" rx="37.3" ry="28.99"/>
<text xml:space="preserve" text-anchor="middle" x="116.15" y="-253.16" font-family="Times New Roman,serif" font-size="14.00">1 IF</text>
<text xml:space="preserve" text-anchor="middle" x="116.15" y="-236.66" font-family="Times New Roman,serif" font-size="14.00">If (+0)</text>
</a>
</g>
</g>
<!-- 0&#45;&gt;1 -->
<g id="edge1" class="edge">
<title>0&#45;&gt;1</title>
<path fill="none" stroke="green" d="M116.15,-315.54C116.15,-307.7 116.15,-299.04 116.15,-290.69"/>
<polygon fill="green" stroke="green" points="119.65,-290.7 116.15,-280.7 112.65,-290.7 119.65,-290.7"/>
</g>
<!-- 5 -->
<g id="node5" class="node">
<title>5</title>
<g id="a_node5"><a xlink:title="capacidade &lt;= 0">
<ellipse fill="none" stroke="green" cx="116.15" cy="-139.47" rx="75.48" ry="28.99"/>
<text xml:space="preserve" text-anchor="middle" x="116.15" y="-142.67" font-family="Times New Roman,serif" font-size="14.00">5 COND</text>
<text xml:space="preserve" text-anchor="middle" x="116.15" y="-126.17" font-family="Times New Roman,serif" font-size="14.00">capacidade &lt;= 0</text>
</a>
</g>
</g>
<!-- 1&#45;&gt;5 -->
<g id="edge3" class="edge">
<title>1&#45;&gt;5</title>
<path fill="none" stroke="green" d="M116.15,-220.74C116.15,-208.4 116.15,-193.72 116.15,-180.3"/>
<polygon fill="green" stroke="green" points="119.65,-180.44 116.15,-170.44 112.65,-180.44 119.65,-180.44"/>
<text xml:space="preserve" text-anchor="middle" x="129.27" y="-189.67" font-family="Times New Roman,serif" font-size="14.00">cond</text>
</g>
<!-- 2 -->
<g id="node3" class="node">
<title>2</title>
<g id="a_node3"><a xlink:title="raise ValueError(&#39;A capacidade deve ser maior que zero.&#39;)&#10;">
<ellipse fill="#e0e0e0" stroke="green" cx="52.15" cy="-28.99" rx="52.15" ry="28.99"/>
<text xml:space="preserve" text-anchor="middle" x="52.15" y="-32.19" font-family="Times New Roman,serif" font-size="14.00">2 THEN</text>
<text xml:space="preserve" text-anchor="middle" x="52.15" y="-15.69" font-family="Times New Roman,serif" font-size="14.00">Raise (+0)</text>
</a>
</g>
</g>
<!-- 4 -->
<g id="node4" class="node">
<title>4</title>
<g id="a_node4"><a xlink:title="self.capacidade = capacidade&#10;self.tabela = [None] * capacidade&#10;self.quantidade = 0&#10;">
<ellipse fill="#e0e0e0" stroke="green" cx="180.15" cy="-28.99" rx="57.45" ry="28.99"/>
<text xml:space="preserve" text-anchor="middle" x="180.15" y="-32.19" font-family="Times New Roman,serif" font-size="14.00">4 JOIN</text>
<text xml:space="preserve" text-anchor="middle" x="180.15" y="-15.69" font-family="Times New Roman,serif" font-size="14.00">Assign (+2)</text>
</a>
</g>
</g>
<!-- 5&#45;&gt;2 -->
<g id="edge2" class="edge">
<title>5&#45;&gt;2</title>
<path fill="none" stroke="green" d="M99.83,-110.82C91.89,-97.35 82.23,-80.98 73.69,-66.51"/>
<polygon fill="green" stroke="green" points="76.86,-64.98 68.76,-58.15 70.83,-68.54 76.86,-64.98"/>
<text xml:space="preserve" text-anchor="middle" x="92.11" y="-79.18" font-family="Times New Roman,serif" font-size="14.00">T</text>
</g>
<!-- 5&#45;&gt;4 -->
<g id="edge4" class="edge">
<title>5&#45;&gt;4</title>
<path fill="none" stroke="green" d="M132.46,-110.82C140.35,-97.46 149.92,-81.23 158.41,-66.84"/>
<polygon fill="green" stroke="green" points="161.25,-68.92 163.32,-58.52 155.22,-65.36 161.25,-68.92"/>
</g>
</g>
</svg>
