<?xml version="1.0" encoding="UTF-8" standalone="no"?>
<!DOCTYPE svg PUBLIC "-//W3C//DTD SVG 1.1//EN"
 "http://www.w3.org/Graphics/SVG/1.1/DTD/svg11.dtd">
<!-- Generated by graphviz version 14.1.4 (20260321.0153)
 -->
<!-- Pages: 1 -->
<svg width="491pt" height="934pt"
 viewBox="0.00 0.00 491.00 934.00" xmlns="http://www.w3.org/2000/svg" xmlns:xlink="http://www.w3.org/1999/xlink">
<g id="graph0" class="graph" transform="scale(1 1) rotate(0) translate(4 930.34)">
<polygon fill="white" stroke="none" points="-4,4 -4,-930.34 487.25,-930.34 487.25,4 -4,4"/>
<!-- 0 -->
<g id="node1" class="node">
<title>0</title>
<g id="a_node1"><a xlink:title="&#39;&#10; &#160;&#160;&#160;&#160;&#160;&#160;&#160;Gera uma representação textual da tabela,&#10; &#160;&#160;&#160;&#160;&#160;&#160;&#160;útil para depuração e demonstração em aula.&#10; &#160;&#160;&#160;&#160;&#160;&#160;&#160;&#39;&#10;linhas = []&#10;">
<ellipse fill="none" stroke="green" cx="198" cy="-897.35" rx="49.5" ry="28.99"/>
<text xml:space="preserve" text-anchor="middle" x="198" y="-900.55" font-family="Times New Roman,serif" font-size="14.00">0 BB</text>
<text xml:space="preserve" text-anchor="middle" x="198" y="-884.05" font-family="Times New Roman,serif" font-size="14.00">Expr (+1)</text>
</a>
</g>
</g>
<!-- 1 -->
<g id="node2" class="node">
<title>1</title>
<g id="a_node2"><a xlink:title="for i, entrada in enumerate(self.tabela):&#10; &#160;&#160;&#160;if entrada is None:&#10; &#160;&#160;&#160;&#160;&#160;&#160;&#160;linhas.append(f&#39;{i}: VAZIO&#39;)&#10; &#160;&#160;&#160;elif entrada is REMOVIDO:&#10; &#160;&#160;&#160;&#160;&#160;&#160;&#160;linhas.append(f&#39;{i}: REMOVIDO&#39;)&#10; &#160;&#160;&#160;else:&#10; &#160;&#160;&#160;&#160;&#160;&#160;&#160;chave, valor = entrada&#10; &#160;&#160;&#160;&#160;&#160;&#160;&#160;linhas.append(f&#39;{i}: {chave} &#45;&gt; {valor}&#39;)&#10;">
<ellipse fill="none" stroke="green" cx="198" cy="-802.37" rx="59.57" ry="28.99"/>
<text xml:space="preserve" text-anchor="middle" x="198" y="-805.57" font-family="Times New Roman,serif" font-size="14.00">1 FOR_PRE</text>
<text xml:space="preserve" text-anchor="middle" x="198" y="-789.07" font-family="Times New Roman,serif" font-size="14.00">For (+0)</text>
</a>
</g>
</g>
<!-- 0&#45;&gt;1 -->
<g id="edge1" class="edge">
<title>0&#45;&gt;1</title>
<path fill="none" stroke="green" d="M198,-867.95C198,-860.11 198,-851.46 198,-843.1"/>
<polygon fill="green" stroke="green" points="201.5,-843.11 198,-833.11 194.5,-843.11 201.5,-843.11"/>
</g>
<!-- 2 -->
<g id="node3" class="node">
<title>2</title>
<ellipse fill="none" stroke="green" cx="198" cy="-691.89" rx="63.29" ry="28.99"/>
<text xml:space="preserve" text-anchor="middle" x="198" y="-695.09" font-family="Times New Roman,serif" font-size="14.00">2 FOR_ITER</text>
<text xml:space="preserve" text-anchor="middle" x="198" y="-678.59" font-family="Times New Roman,serif" font-size="14.00">For (+0)</text>
</g>
<!-- 1&#45;&gt;2 -->
<g id="edge2" class="edge">
<title>1&#45;&gt;2</title>
<path fill="none" stroke="green" d="M198,-773.15C198,-760.82 198,-746.13 198,-732.72"/>
<polygon fill="green" stroke="green" points="201.5,-732.86 198,-722.86 194.5,-732.86 201.5,-732.86"/>
<text xml:space="preserve" text-anchor="middle" x="216.75" y="-742.08" font-family="Times New Roman,serif" font-size="14.00">for:iter</text>
</g>
<!-- 3 -->
<g id="node4" class="node">
<title>3</title>
<g id="a_node4"><a xlink:title="if entrada is None:&#10; &#160;&#160;&#160;linhas.append(f&#39;{i}: VAZIO&#39;)&#10;elif entrada is REMOVIDO:&#10; &#160;&#160;&#160;linhas.append(f&#39;{i}: REMOVIDO&#39;)&#10;else:&#10; &#160;&#160;&#160;chave, valor = entrada&#10; &#160;&#160;&#160;linhas.append(f&#39;{i}: {chave} &#45;&gt; {valor}&#39;)&#10;">
<ellipse fill="none" stroke="green" cx="273" cy="-581.41" rx="37.3" ry="28.99"/>
<text xml:space="preserve" text-anchor="middle" x="273" y="-584.61" font-family="Times New Roman,serif" font-size="14.00">3 IF</text>
<text xml:space="preserve" text-anchor="middle" x="273" y="-568.11" font-family="Times New Roman,serif" font-size="14.00">If (+0)</text>
</a>
</g>
</g>
<!-- 2&#45;&gt;3 -->
<g id="edge3" class="edge">
<title>2&#45;&gt;3</title>
<path fill="none" stroke="green" d="M216.73,-663.79C226.65,-649.45 238.93,-631.69 249.48,-616.43"/>
<polygon fill="green" stroke="green" points="252.12,-618.76 254.93,-608.54 246.36,-614.78 252.12,-618.76"/>
<text xml:space="preserve" text-anchor="middle" x="253.12" y="-631.6" font-family="Times New Roman,serif" font-size="14.00">Next</text>
</g>
<!-- 4 -->
<g id="node5" class="node">
<title>4</title>
<g id="a_node5"><a xlink:title="return &#39;&#10;&#39;.join(linhas)&#10;">
<ellipse fill="#e0e0e0" stroke="green" cx="137" cy="-28.99" rx="72.3" ry="28.99"/>
<text xml:space="preserve" text-anchor="middle" x="137" y="-32.19" font-family="Times New Roman,serif" font-size="14.00">4 FOR_AFTER</text>
<text xml:space="preserve" text-anchor="middle" x="137" y="-15.69" font-family="Times New Roman,serif" font-size="14.00">Return (+0)</text>
</a>
</g>
</g>
<!-- 2&#45;&gt;4 -->
<g id="edge10" class="edge">
<title>2&#45;&gt;4</title>
<path fill="none" stroke="red" d="M136.98,-683.33C78.8,-672.31 0,-645.71 0,-582.41 0,-582.41 0,-582.41 0,-138.47 0,-98.3 36.66,-70.66 72.05,-53.34"/>
<polygon fill="red" stroke="red" points="73.49,-56.53 81.09,-49.14 70.54,-50.18 73.49,-56.53"/>
<text xml:space="preserve" text-anchor="middle" x="26.62" y="-355.39" font-family="Times New Roman,serif" font-size="14.00">Not_Next</text>
</g>
<!-- 8 -->
<g id="node8" class="node">
<title>8</title>
<g id="a_node8"><a xlink:title="entrada is None">
<ellipse fill="none" stroke="green" cx="298" cy="-470.92" rx="71.77" ry="28.99"/>
<text xml:space="preserve" text-anchor="middle" x="298" y="-474.12" font-family="Times New Roman,serif" font-size="14.00">8 COND</text>
<text xml:space="preserve" text-anchor="middle" x="298" y="-457.62" font-family="Times New Roman,serif" font-size="14.00">entrada is None</text>
</a>
</g>
</g>
<!-- 3&#45;&gt;8 -->
<g id="edge6" class="edge">
<title>3&#45;&gt;8</title>
<path fill="none" stroke="green" d="M279.44,-552.47C282.33,-539.91 285.8,-524.88 288.95,-511.21"/>
<polygon fill="green" stroke="green" points="292.32,-512.15 291.16,-501.62 285.5,-510.58 292.32,-512.15"/>
<text xml:space="preserve" text-anchor="middle" x="300.12" y="-521.11" font-family="Times New Roman,serif" font-size="14.00">cond</text>
</g>
<!-- 5 -->
<g id="node6" class="node">
<title>5</title>
<g id="a_node6"><a xlink:title="linhas.append(f&#39;{i}: VAZIO&#39;)&#10;">
<ellipse fill="none" stroke="green" cx="121" cy="-360.44" rx="49.5" ry="28.99"/>
<text xml:space="preserve" text-anchor="middle" x="121" y="-363.64" font-family="Times New Roman,serif" font-size="14.00">5 THEN</text>
<text xml:space="preserve" text-anchor="middle" x="121" y="-347.14" font-family="Times New Roman,serif" font-size="14.00">Expr (+0)</text>
</a>
</g>
</g>
<!-- 5&#45;&gt;2 -->
<g id="edge11" class="edge">
<title>5&#45;&gt;2</title>
<path fill="none" stroke="green" d="M126.47,-389.37C136.62,-440.41 159.58,-552.02 184,-644.9 184.6,-647.17 185.23,-649.49 185.89,-651.84"/>
<polygon fill="green" stroke="green" points="182.49,-652.69 188.64,-661.32 189.21,-650.74 182.49,-652.69"/>
<text xml:space="preserve" text-anchor="middle" x="168.21" y="-521.11" font-family="Times New Roman,serif" font-size="14.00">next</text>
</g>
<!-- 5&#45;&gt;4 -->
<g id="edge12" class="edge">
<title>5&#45;&gt;4</title>
<path fill="none" stroke="green" d="M122.38,-331.07C125.23,-272.32 131.79,-137.23 135.07,-69.8"/>
<polygon fill="green" stroke="green" points="138.56,-70.08 135.55,-59.93 131.57,-69.74 138.56,-70.08"/>
<text xml:space="preserve" text-anchor="middle" x="154.12" y="-189.67" font-family="Times New Roman,serif" font-size="14.00">No_Next</text>
</g>
<!-- 6 -->
<g id="node7" class="node">
<title>6</title>
<g id="a_node7"><a xlink:title="if entrada is REMOVIDO:&#10; &#160;&#160;&#160;linhas.append(f&#39;{i}: REMOVIDO&#39;)&#10;else:&#10; &#160;&#160;&#160;chave, valor = entrada&#10; &#160;&#160;&#160;linhas.append(f&#39;{i}: {chave} &#45;&gt; {valor}&#39;)&#10;">
<ellipse fill="none" stroke="green" cx="321" cy="-360.44" rx="37.3" ry="28.99"/>
<text xml:space="preserve" text-anchor="middle" x="321" y="-363.64" font-family="Times New Roman,serif" font-size="14.00">6 IF</text>
<text xml:space="preserve" text-anchor="middle" x="321" y="-347.14" font-family="Times New Roman,serif" font-size="14.00">If (+0)</text>
</a>
</g>
</g>
<!-- 12 -->
<g id="node11" class="node">
<title>12</title>
<g id="a_node11"><a xlink:title="entrada is REMOVIDO">
<ellipse fill="none" stroke="green" cx="329" cy="-249.96" rx="103.06" ry="28.99"/>
<text xml:space="preserve" text-anchor="middle" x="329" y="-253.16" font-family="Times New Roman,serif" font-size="14.00">12 COND</text>
<text xml:space="preserve" text-anchor="middle" x="329" y="-236.66" font-family="Times New Roman,serif" font-size="14.00">entrada is REMOVIDO</text>
</a>
</g>
</g>
<!-- 6&#45;&gt;12 -->
<g id="edge9" class="edge">
<title>6&#45;&gt;12</title>
<path fill="none" stroke="green" d="M323.08,-331.22C323.99,-318.89 325.07,-304.2 326.06,-290.78"/>
<polygon fill="green" stroke="green" points="329.55,-291.15 326.79,-280.92 322.56,-290.64 329.55,-291.15"/>
<text xml:space="preserve" text-anchor="middle" x="338.6" y="-300.15" font-family="Times New Roman,serif" font-size="14.00">cond</text>
</g>
<!-- 8&#45;&gt;5 -->
<g id="edge4" class="edge">
<title>8&#45;&gt;5</title>
<path fill="none" stroke="green" d="M271.41,-443.86C258.18,-431.78 241.52,-417.84 225,-407.43 208.88,-397.28 190.15,-388.25 173.05,-380.93"/>
<polygon fill="green" stroke="green" points="174.63,-377.8 164.05,-377.19 171.94,-384.26 174.63,-377.8"/>
<text xml:space="preserve" text-anchor="middle" x="250.59" y="-410.63" font-family="Times New Roman,serif" font-size="14.00">T</text>
</g>
<!-- 8&#45;&gt;6 -->
<g id="edge5" class="edge">
<title>8&#45;&gt;6</title>
<path fill="none" stroke="green" d="M303.98,-441.7C306.64,-429.15 309.82,-414.15 312.71,-400.54"/>
<polygon fill="green" stroke="green" points="316.08,-401.51 314.73,-391 309.24,-400.05 316.08,-401.51"/>
<text xml:space="preserve" text-anchor="middle" x="314.63" y="-410.63" font-family="Times New Roman,serif" font-size="14.00">F</text>
</g>
<!-- 9 -->
<g id="node9" class="node">
<title>9</title>
<g id="a_node9"><a xlink:title="linhas.append(f&#39;{i}: REMOVIDO&#39;)&#10;">
<ellipse fill="none" stroke="green" cx="198" cy="-139.47" rx="49.5" ry="28.99"/>
<text xml:space="preserve" text-anchor="middle" x="198" y="-142.67" font-family="Times New Roman,serif" font-size="14.00">9 THEN</text>
<text xml:space="preserve" text-anchor="middle" x="198" y="-126.17" font-family="Times New Roman,serif" font-size="14.00">Expr (+0)</text>
</a>
</g>
</g>
<!-- 9&#45;&gt;2 -->
<g id="edge13" class="edge">
<title>9&#45;&gt;2</title>
<path fill="none" stroke="green" d="M198,-168.57C198,-190.47 198,-221.65 198,-248.96 198,-582.41 198,-582.41 198,-582.41 198,-605.23 198,-630.76 198,-651.32"/>
<polygon fill="green" stroke="green" points="194.5,-651.28 198,-661.28 201.5,-651.28 194.5,-651.28"/>
<text xml:space="preserve" text-anchor="middle" x="209.62" y="-410.63" font-family="Times New Roman,serif" font-size="14.00">next</text>
</g>
<!-- 9&#45;&gt;4 -->
<g id="edge14" class="edge">
<title>9&#45;&gt;4</title>
<path fill="none" stroke="green" d="M182.92,-111.66C175.41,-98.3 166.21,-81.93 158.02,-67.37"/>
<polygon fill="green" stroke="green" points="161.24,-65.95 153.28,-58.95 155.13,-69.38 161.24,-65.95"/>
<text xml:space="preserve" text-anchor="middle" x="195.9" y="-79.18" font-family="Times New Roman,serif" font-size="14.00">No_Next</text>
</g>
<!-- 10 -->
<g id="node10" class="node">
<title>10</title>
<g id="a_node10"><a xlink:title="chave, valor = entrada&#10;linhas.append(f&#39;{i}: {chave} &#45;&gt; {valor}&#39;)&#10;">
<ellipse fill="none" stroke="green" cx="329" cy="-139.47" rx="57.45" ry="28.99"/>
<text xml:space="preserve" text-anchor="middle" x="329" y="-142.67" font-family="Times New Roman,serif" font-size="14.00">10 ELSE</text>
<text xml:space="preserve" text-anchor="middle" x="329" y="-126.17" font-family="Times New Roman,serif" font-size="14.00">Assign (+1)</text>
</a>
</g>
</g>
<!-- 10&#45;&gt;2 -->
<g id="edge15" class="edge">
<title>10&#45;&gt;2</title>
<path fill="none" stroke="green" d="M375.19,-156.92C412.9,-173.66 460,-203.63 460,-248.96 460,-582.41 460,-582.41 460,-582.41 460,-664.05 350.04,-685.44 272.6,-690.38"/>
<polygon fill="green" stroke="green" points="272.73,-686.87 262.93,-690.91 273.11,-693.86 272.73,-686.87"/>
<text xml:space="preserve" text-anchor="middle" x="471.62" y="-410.63" font-family="Times New Roman,serif" font-size="14.00">next</text>
</g>
<!-- 10&#45;&gt;4 -->
<g id="edge16" class="edge">
<title>10&#45;&gt;4</title>
<path fill="none" stroke="green" d="M293.69,-116.54C273.7,-104.31 248.15,-88.97 225,-75.98 214.18,-69.91 202.49,-63.62 191.27,-57.71"/>
<polygon fill="green" stroke="green" points="192.97,-54.65 182.48,-53.11 189.72,-60.85 192.97,-54.65"/>
<text xml:space="preserve" text-anchor="middle" x="275.72" y="-79.18" font-family="Times New Roman,serif" font-size="14.00">No_Next</text>
</g>
<!-- 12&#45;&gt;9 -->
<g id="edge7" class="edge">
<title>12&#45;&gt;9</title>
<path fill="none" stroke="green" d="M296.62,-222.14C277.83,-206.58 254.1,-186.93 234.63,-170.81"/>
<polygon fill="green" stroke="green" points="237.11,-168.32 227.18,-164.64 232.65,-173.71 237.11,-168.32"/>
<text xml:space="preserve" text-anchor="middle" x="275.47" y="-189.67" font-family="Times New Roman,serif" font-size="14.00">T</text>
</g>
<!-- 12&#45;&gt;10 -->
<g id="edge8" class="edge">
<title>12&#45;&gt;10</title>
<path fill="none" stroke="green" d="M329,-220.74C329,-208.4 329,-193.72 329,-180.3"/>
<polygon fill="green" stroke="green" points="332.5,-180.44 329,-170.44 325.5,-180.44 332.5,-180.44"/>
<text xml:space="preserve" text-anchor="middle" x="332.75" y="-189.67" font-family="Times New Roman,serif" font-size="14.00">F</text>
</g>
</g>
</svg>
