<?xml version="1.0" encoding="UTF-8" standalone="no"?>
<!DOCTYPE svg PUBLIC "-//W3C//DTD SVG 1.1//EN"
 "http://www.w3.org/Graphics/SVG/1.1/DTD/svg11.dtd">
<!-- Generated by graphviz version 14.1.4 (20260321.0153)
 -->
<!-- Pages: 1 -->
<svg width="461pt" height="894pt"
 viewBox="0.00 0.00 461.00 894.00" xmlns="http://www.w3.org/2000/svg" xmlns:xlink="http://www.w3.org/1999/xlink">
<g id="graph0" class="graph" transform="scale(1 1) rotate(0) translate(4 890.36)">
<polygon fill="white" stroke="none" points="-4,4 -4,-890.36 457.23,-890.36 457.23,4 -4,4"/>
<!-- 0 -->
<g id="node1" class="node">
<title>0</title>
<g id="a_node1"><a xlink:title="&#39;&#10; &#160;&#160;&#160;&#160;&#160;&#160;&#160;Insere um novo par (chave, valor) na tabela.&#10;&#10; &#160;&#160;&#160;&#160;&#160;&#160;&#160;Se a chave já existir, apenas atualiza o valor.&#10; &#160;&#160;&#160;&#160;&#160;&#160;&#160;&#39;&#10;posicao = self._procurar_posicao(chave, para_insercao=True)&#10;">
<ellipse fill="none" stroke="green" cx="72.83" cy="-857.37" rx="49.5" ry="28.99"/>
<text xml:space="preserve" text-anchor="middle" x="72.83" y="-860.57" font-family="Times New Roman,serif" font-size="14.00">0 BB</text>
<text xml:space="preserve" text-anchor="middle" x="72.83" y="-844.07" font-family="Times New Roman,serif" font-size="14.00">Expr (+1)</text>
</a>
</g>
</g>
<!-- 1 -->
<g id="node2" class="node">
<title>1</title>
<g id="a_node2"><a xlink:title="if posicao is None:&#10; &#160;&#160;&#160;raise OverflowError(&#39;Tabela hash cheia.&#39;)&#10;">
<ellipse fill="none" stroke="green" cx="72.83" cy="-762.39" rx="37.3" ry="28.99"/>
<text xml:space="preserve" text-anchor="middle" x="72.83" y="-765.59" font-family="Times New Roman,serif" font-size="14.00">1 IF</text>
<text xml:space="preserve" text-anchor="middle" x="72.83" y="-749.09" font-family="Times New Roman,serif" font-size="14.00">If (+0)</text>
</a>
</g>
</g>
<!-- 0&#45;&gt;1 -->
<g id="edge1" class="edge">
<title>0&#45;&gt;1</title>
<path fill="none" stroke="green" d="M72.83,-827.97C72.83,-820.13 72.83,-811.47 72.83,-803.12"/>
<polygon fill="green" stroke="green" points="76.33,-803.13 72.83,-793.13 69.33,-803.13 76.33,-803.13"/>
</g>
<!-- 5 -->
<g id="node5" class="node">
<title>5</title>
<g id="a_node5"><a xlink:title="posicao is None">
<ellipse fill="none" stroke="green" cx="72.83" cy="-651.91" rx="72.83" ry="28.99"/>
<text xml:space="preserve" text-anchor="middle" x="72.83" y="-655.11" font-family="Times New Roman,serif" font-size="14.00">5 COND</text>
<text xml:space="preserve" text-anchor="middle" x="72.83" y="-638.61" font-family="Times New Roman,serif" font-size="14.00">posicao is None</text>
</a>
</g>
</g>
<!-- 1&#45;&gt;5 -->
<g id="edge3" class="edge">
<title>1&#45;&gt;5</title>
<path fill="none" stroke="green" d="M72.83,-733.17C72.83,-720.84 72.83,-706.15 72.83,-692.73"/>
<polygon fill="green" stroke="green" points="76.33,-692.87 72.83,-682.87 69.33,-692.87 76.33,-692.87"/>
<text xml:space="preserve" text-anchor="middle" x="85.96" y="-702.1" font-family="Times New Roman,serif" font-size="14.00">cond</text>
</g>
<!-- 2 -->
<g id="node3" class="node">
<title>2</title>
<g id="a_node3"><a xlink:title="raise OverflowError(&#39;Tabela hash cheia.&#39;)&#10;">
<ellipse fill="#e0e0e0" stroke="green" cx="61.83" cy="-541.42" rx="52.15" ry="28.99"/>
<text xml:space="preserve" text-anchor="middle" x="61.83" y="-544.62" font-family="Times New Roman,serif" font-size="14.00">2 THEN</text>
<text xml:space="preserve" text-anchor="middle" x="61.83" y="-528.12" font-family="Times New Roman,serif" font-size="14.00">Raise (+0)</text>
</a>
</g>
</g>
<!-- 4 -->
<g id="node4" class="node">
<title>4</title>
<g id="a_node4"><a xlink:title="entrada_atual = self.tabela[posicao]&#10;">
<ellipse fill="none" stroke="green" cx="189.83" cy="-541.42" rx="57.45" ry="28.99"/>
<text xml:space="preserve" text-anchor="middle" x="189.83" y="-544.62" font-family="Times New Roman,serif" font-size="14.00">4 JOIN</text>
<text xml:space="preserve" text-anchor="middle" x="189.83" y="-528.12" font-family="Times New Roman,serif" font-size="14.00">Assign (+0)</text>
</a>
</g>
</g>
<!-- 7 -->
<g id="node6" class="node">
<title>7</title>
<g id="a_node6"><a xlink:title="if entrada_atual is None or entrada_atual is REMOVIDO:&#10; &#160;&#160;&#160;self.tabela[posicao] = (chave, valor)&#10; &#160;&#160;&#160;self.quantidade += 1&#10;else:&#10; &#160;&#160;&#160;self.tabela[posicao] = (chave, valor)&#10;">
<ellipse fill="none" stroke="green" cx="189.83" cy="-446.44" rx="37.3" ry="28.99"/>
<text xml:space="preserve" text-anchor="middle" x="189.83" y="-449.64" font-family="Times New Roman,serif" font-size="14.00">7 IF</text>
<text xml:space="preserve" text-anchor="middle" x="189.83" y="-433.14" font-family="Times New Roman,serif" font-size="14.00">If (+0)</text>
</a>
</g>
</g>
<!-- 4&#45;&gt;7 -->
<g id="edge4" class="edge">
<title>4&#45;&gt;7</title>
<path fill="none" stroke="green" d="M189.83,-512.02C189.83,-504.18 189.83,-495.52 189.83,-487.17"/>
<polygon fill="green" stroke="green" points="193.33,-487.18 189.83,-477.18 186.33,-487.18 193.33,-487.18"/>
</g>
<!-- 5&#45;&gt;2 -->
<g id="edge2" class="edge">
<title>5&#45;&gt;2</title>
<path fill="none" stroke="green" d="M69.97,-622.69C68.71,-610.26 67.21,-595.44 65.84,-581.93"/>
<polygon fill="green" stroke="green" points="69.32,-581.6 64.83,-572.01 62.36,-582.31 69.32,-581.6"/>
<text xml:space="preserve" text-anchor="middle" x="72.12" y="-591.61" font-family="Times New Roman,serif" font-size="14.00">T</text>
</g>
<!-- 5&#45;&gt;4 -->
<g id="edge12" class="edge">
<title>5&#45;&gt;4</title>
<path fill="none" stroke="green" d="M100.86,-624.92C117.01,-609.95 137.46,-590.98 154.68,-575.02"/>
<polygon fill="green" stroke="green" points="156.78,-577.84 161.73,-568.48 152.02,-572.71 156.78,-577.84"/>
</g>
<!-- 12 -->
<g id="node11" class="node">
<title>12</title>
<g id="a_node11"><a xlink:title="entrada_atual is None">
<ellipse fill="none" stroke="green" cx="189.83" cy="-335.96" rx="95.11" ry="28.99"/>
<text xml:space="preserve" text-anchor="middle" x="189.83" y="-339.16" font-family="Times New Roman,serif" font-size="14.00">12 COND</text>
<text xml:space="preserve" text-anchor="middle" x="189.83" y="-322.66" font-family="Times New Roman,serif" font-size="14.00">entrada_atual is None</text>
</a>
</g>
</g>
<!-- 7&#45;&gt;12 -->
<g id="edge9" class="edge">
<title>7&#45;&gt;12</title>
<path fill="none" stroke="green" d="M189.83,-417.22C189.83,-404.89 189.83,-390.2 189.83,-376.78"/>
<polygon fill="green" stroke="green" points="193.33,-376.93 189.83,-366.93 186.33,-376.93 193.33,-376.93"/>
<text xml:space="preserve" text-anchor="middle" x="202.96" y="-386.15" font-family="Times New Roman,serif" font-size="14.00">cond</text>
</g>
<!-- 8 -->
<g id="node7" class="node">
<title>8</title>
<g id="a_node7"><a xlink:title="self.tabela[posicao] = (chave, valor)&#10;self.quantidade += 1&#10;">
<ellipse fill="none" stroke="green" cx="193.83" cy="-114.99" rx="57.45" ry="28.99"/>
<text xml:space="preserve" text-anchor="middle" x="193.83" y="-118.19" font-family="Times New Roman,serif" font-size="14.00">8 THEN</text>
<text xml:space="preserve" text-anchor="middle" x="193.83" y="-101.69" font-family="Times New Roman,serif" font-size="14.00">Assign (+1)</text>
</a>
</g>
</g>
<!-- 10 -->
<g id="node9" class="node">
<title>10</title>
<polygon fill="yellow" stroke="black" points="259.83,-49 196.03,-12.25 323.64,-12.25 259.83,-49"/>
<text xml:space="preserve" text-anchor="middle" x="259.83" y="-19.45" font-family="Times New Roman,serif" font-size="14.00">EXIT</text>
</g>
<!-- 8&#45;&gt;10 -->
<g id="edge10" class="edge">
<title>8&#45;&gt;10</title>
<path fill="none" stroke="black" stroke-dasharray="1,5" d="M213.63,-87.44C222.18,-75.99 232.13,-62.64 240.61,-51.27"/>
<polygon fill="black" stroke="black" points="243.24,-53.6 246.42,-43.49 237.63,-49.41 243.24,-53.6"/>
</g>
<!-- 9 -->
<g id="node8" class="node">
<title>9</title>
<g id="a_node8"><a xlink:title="self.tabela[posicao] = (chave, valor)&#10;">
<ellipse fill="none" stroke="green" cx="326.83" cy="-114.99" rx="57.45" ry="28.99"/>
<text xml:space="preserve" text-anchor="middle" x="326.83" y="-118.19" font-family="Times New Roman,serif" font-size="14.00">9 ELSE</text>
<text xml:space="preserve" text-anchor="middle" x="326.83" y="-101.69" font-family="Times New Roman,serif" font-size="14.00">Assign (+0)</text>
</a>
</g>
</g>
<!-- 9&#45;&gt;10 -->
<g id="edge11" class="edge">
<title>9&#45;&gt;10</title>
<path fill="none" stroke="black" stroke-dasharray="1,5" d="M306.73,-87.44C298,-75.91 287.81,-62.45 279.17,-51.03"/>
<polygon fill="black" stroke="black" points="282.07,-49.08 273.25,-43.22 276.49,-53.3 282.07,-49.08"/>
</g>
<!-- 11 -->
<g id="node10" class="node">
<title>11</title>
<g id="a_node10"><a xlink:title="entrada_atual is REMOVIDO">
<ellipse fill="none" stroke="green" cx="326.83" cy="-225.47" rx="126.4" ry="28.99"/>
<text xml:space="preserve" text-anchor="middle" x="326.83" y="-228.67" font-family="Times New Roman,serif" font-size="14.00">11 COND</text>
<text xml:space="preserve" text-anchor="middle" x="326.83" y="-212.17" font-family="Times New Roman,serif" font-size="14.00">entrada_atual is REMOVIDO</text>
</a>
</g>
</g>
<!-- 11&#45;&gt;8 -->
<g id="edge5" class="edge">
<title>11&#45;&gt;8</title>
<path fill="none" stroke="green" d="M293.27,-197.1C274.67,-181.93 251.47,-163 232.16,-147.25"/>
<polygon fill="green" stroke="green" points="234.44,-144.6 224.48,-140.99 230.02,-150.02 234.44,-144.6"/>
<text xml:space="preserve" text-anchor="middle" x="272.42" y="-165.18" font-family="Times New Roman,serif" font-size="14.00">T</text>
</g>
<!-- 11&#45;&gt;9 -->
<g id="edge6" class="edge">
<title>11&#45;&gt;9</title>
<path fill="none" stroke="green" d="M326.83,-196.25C326.83,-183.92 326.83,-169.24 326.83,-155.82"/>
<polygon fill="green" stroke="green" points="330.33,-155.96 326.83,-145.96 323.33,-155.96 330.33,-155.96"/>
<text xml:space="preserve" text-anchor="middle" x="330.58" y="-165.18" font-family="Times New Roman,serif" font-size="14.00">F</text>
</g>
<!-- 12&#45;&gt;8 -->
<g id="edge7" class="edge">
<title>12&#45;&gt;8</title>
<path fill="none" stroke="green" d="M186.75,-306.56C184.14,-278.56 181.17,-234.55 183.58,-196.48 184.44,-183 186.09,-168.32 187.82,-155.24"/>
<polygon fill="green" stroke="green" points="191.24,-156.1 189.14,-145.72 184.3,-155.14 191.24,-156.1"/>
<text xml:space="preserve" text-anchor="middle" x="187.71" y="-220.42" font-family="Times New Roman,serif" font-size="14.00">T</text>
</g>
<!-- 12&#45;&gt;11 -->
<g id="edge8" class="edge">
<title>12&#45;&gt;11</title>
<path fill="none" stroke="green" d="M223.35,-308.42C241.54,-294.01 264.23,-276.05 283.72,-260.61"/>
<polygon fill="green" stroke="green" points="285.86,-263.38 291.53,-254.43 281.51,-257.9 285.86,-263.38"/>
<text xml:space="preserve" text-anchor="middle" x="270.28" y="-275.67" font-family="Times New Roman,serif" font-size="14.00">F</text>
</g>
</g>
</svg>
