<?xml version="1.0" encoding="UTF-8" standalone="no"?>
<!DOCTYPE svg PUBLIC "-//W3C//DTD SVG 1.1//EN"
 "http://www.w3.org/Graphics/SVG/1.1/DTD/svg11.dtd">
<!-- Generated by graphviz version 14.1.4 (20260321.0153)
 -->
<!-- Pages: 1 -->
<svg width="391pt" height="824pt"
 viewBox="0.00 0.00 391.00 824.00" xmlns="http://www.w3.org/2000/svg" xmlns:xlink="http://www.w3.org/1999/xlink">
<g id="graph0" class="graph" transform="scale(1 1) rotate(0) translate(4 819.86)">
<polygon fill="white" stroke="none" points="-4,4 -4,-819.86 387.25,-819.86 387.25,4 -4,4"/>
<!-- 0 -->
<g id="node1" class="node">
<title>0</title>
<g id="a_node1"><a xlink:title="&#39;&#10; &#160;&#160;&#160;&#160;&#160;&#160;&#160;Devolve uma lista de pares (chave, valor) presentes na tabela.&#10; &#160;&#160;&#160;&#160;&#160;&#160;&#160;&#39;&#10;resultado = []&#10;">
<ellipse fill="none" stroke="green" cx="165" cy="-786.87" rx="49.5" ry="28.99"/>
<text xml:space="preserve" text-anchor="middle" x="165" y="-790.07" font-family="Times New Roman,serif" font-size="14.00">0 BB</text>
<text xml:space="preserve" text-anchor="middle" x="165" y="-773.57" font-family="Times New Roman,serif" font-size="14.00">Expr (+1)</text>
</a>
</g>
</g>
<!-- 1 -->
<g id="node2" class="node">
<title>1</title>
<g id="a_node2"><a xlink:title="for entrada in self.tabela:&#10; &#160;&#160;&#160;if entrada is not None and entrada is not REMOVIDO:&#10; &#160;&#160;&#160;&#160;&#160;&#160;&#160;resultado.append(entrada)&#10;">
<ellipse fill="none" stroke="green" cx="165" cy="-691.89" rx="59.57" ry="28.99"/>
<text xml:space="preserve" text-anchor="middle" x="165" y="-695.09" font-family="Times New Roman,serif" font-size="14.00">1 FOR_PRE</text>
<text xml:space="preserve" text-anchor="middle" x="165" y="-678.59" font-family="Times New Roman,serif" font-size="14.00">For (+0)</text>
</a>
</g>
</g>
<!-- 0&#45;&gt;1 -->
<g id="edge1" class="edge">
<title>0&#45;&gt;1</title>
<path fill="none" stroke="green" d="M165,-757.47C165,-749.63 165,-740.97 165,-732.62"/>
<polygon fill="green" stroke="green" points="168.5,-732.63 165,-722.63 161.5,-732.63 168.5,-732.63"/>
</g>
<!-- 2 -->
<g id="node3" class="node">
<title>2</title>
<ellipse fill="none" stroke="green" cx="165" cy="-581.41" rx="63.29" ry="28.99"/>
<text xml:space="preserve" text-anchor="middle" x="165" y="-584.61" font-family="Times New Roman,serif" font-size="14.00">2 FOR_ITER</text>
<text xml:space="preserve" text-anchor="middle" x="165" y="-568.11" font-family="Times New Roman,serif" font-size="14.00">For (+0)</text>
</g>
<!-- 1&#45;&gt;2 -->
<g id="edge2" class="edge">
<title>1&#45;&gt;2</title>
<path fill="none" stroke="green" d="M165,-662.67C165,-650.34 165,-635.65 165,-622.23"/>
<polygon fill="green" stroke="green" points="168.5,-622.37 165,-612.37 161.5,-622.37 168.5,-622.37"/>
<text xml:space="preserve" text-anchor="middle" x="183.75" y="-631.6" font-family="Times New Roman,serif" font-size="14.00">for:iter</text>
</g>
<!-- 3 -->
<g id="node4" class="node">
<title>3</title>
<g id="a_node4"><a xlink:title="if entrada is not None and entrada is not REMOVIDO:&#10; &#160;&#160;&#160;resultado.append(entrada)&#10;">
<ellipse fill="none" stroke="green" cx="165" cy="-470.92" rx="37.3" ry="28.99"/>
<text xml:space="preserve" text-anchor="middle" x="165" y="-474.12" font-family="Times New Roman,serif" font-size="14.00">3 IF</text>
<text xml:space="preserve" text-anchor="middle" x="165" y="-457.62" font-family="Times New Roman,serif" font-size="14.00">If (+0)</text>
</a>
</g>
</g>
<!-- 2&#45;&gt;3 -->
<g id="edge3" class="edge">
<title>2&#45;&gt;3</title>
<path fill="none" stroke="green" d="M165,-552.19C165,-539.85 165,-525.17 165,-511.75"/>
<polygon fill="green" stroke="green" points="168.5,-511.89 165,-501.89 161.5,-511.89 168.5,-511.89"/>
<text xml:space="preserve" text-anchor="middle" x="178.12" y="-521.11" font-family="Times New Roman,serif" font-size="14.00">Next</text>
</g>
<!-- 4 -->
<g id="node5" class="node">
<title>4</title>
<g id="a_node5"><a xlink:title="return resultado&#10;">
<ellipse fill="#e0e0e0" stroke="green" cx="100" cy="-28.99" rx="72.3" ry="28.99"/>
<text xml:space="preserve" text-anchor="middle" x="100" y="-32.19" font-family="Times New Roman,serif" font-size="14.00">4 FOR_AFTER</text>
<text xml:space="preserve" text-anchor="middle" x="100" y="-15.69" font-family="Times New Roman,serif" font-size="14.00">Return (+0)</text>
</a>
</g>
</g>
<!-- 2&#45;&gt;4 -->
<g id="edge7" class="edge">
<title>2&#45;&gt;4</title>
<path fill="none" stroke="red" d="M108.68,-568.02C60.88,-553.8 0,-525.23 0,-471.92 0,-471.92 0,-471.92 0,-138.47 0,-105.74 24.92,-78.65 49.89,-59.73"/>
<polygon fill="red" stroke="red" points="51.74,-62.7 57.81,-54.02 47.65,-57.03 51.74,-62.7"/>
<text xml:space="preserve" text-anchor="middle" x="26.62" y="-300.15" font-family="Times New Roman,serif" font-size="14.00">Not_Next</text>
</g>
<!-- 9 -->
<g id="node8" class="node">
<title>9</title>
<g id="a_node8"><a xlink:title="entrada is not None">
<ellipse fill="none" stroke="green" cx="115" cy="-360.44" rx="86.62" ry="28.99"/>
<text xml:space="preserve" text-anchor="middle" x="115" y="-363.64" font-family="Times New Roman,serif" font-size="14.00">9 COND</text>
<text xml:space="preserve" text-anchor="middle" x="115" y="-347.14" font-family="Times New Roman,serif" font-size="14.00">entrada is not None</text>
</a>
</g>
</g>
<!-- 3&#45;&gt;9 -->
<g id="edge6" class="edge">
<title>3&#45;&gt;9</title>
<path fill="none" stroke="green" d="M152.64,-443.11C146.59,-429.98 139.2,-413.94 132.57,-399.57"/>
<polygon fill="green" stroke="green" points="135.91,-398.45 128.55,-390.83 129.56,-401.38 135.91,-398.45"/>
<text xml:space="preserve" text-anchor="middle" x="156.12" y="-410.63" font-family="Times New Roman,serif" font-size="14.00">cond</text>
</g>
<!-- 5 -->
<g id="node6" class="node">
<title>5</title>
<g id="a_node6"><a xlink:title="resultado.append(entrada)&#10;">
<ellipse fill="none" stroke="green" cx="250" cy="-139.47" rx="49.5" ry="28.99"/>
<text xml:space="preserve" text-anchor="middle" x="250" y="-142.67" font-family="Times New Roman,serif" font-size="14.00">5 THEN</text>
<text xml:space="preserve" text-anchor="middle" x="250" y="-126.17" font-family="Times New Roman,serif" font-size="14.00">Expr (+0)</text>
</a>
</g>
</g>
<!-- 5&#45;&gt;2 -->
<g id="edge8" class="edge">
<title>5&#45;&gt;2</title>
<path fill="none" stroke="green" d="M287.86,-158.39C319.67,-176.38 360,-207.38 360,-248.96 360,-471.92 360,-471.92 360,-471.92 360,-530.4 292.21,-557.63 236.57,-570.13"/>
<polygon fill="green" stroke="green" points="236.17,-566.64 227.11,-572.13 237.62,-573.49 236.17,-566.64"/>
<text xml:space="preserve" text-anchor="middle" x="371.62" y="-355.39" font-family="Times New Roman,serif" font-size="14.00">next</text>
</g>
<!-- 5&#45;&gt;4 -->
<g id="edge9" class="edge">
<title>5&#45;&gt;4</title>
<path fill="none" stroke="green" d="M219.28,-116.26C197.39,-100.43 167.67,-78.93 143.36,-61.35"/>
<polygon fill="green" stroke="green" points="145.72,-58.74 135.57,-55.72 141.62,-64.41 145.72,-58.74"/>
<text xml:space="preserve" text-anchor="middle" x="208.73" y="-79.18" font-family="Times New Roman,serif" font-size="14.00">No_Next</text>
</g>
<!-- 8 -->
<g id="node7" class="node">
<title>8</title>
<g id="a_node7"><a xlink:title="entrada is not REMOVIDO">
<ellipse fill="none" stroke="green" cx="214" cy="-249.96" rx="117.91" ry="28.99"/>
<text xml:space="preserve" text-anchor="middle" x="214" y="-253.16" font-family="Times New Roman,serif" font-size="14.00">8 COND</text>
<text xml:space="preserve" text-anchor="middle" x="214" y="-236.66" font-family="Times New Roman,serif" font-size="14.00">entrada is not REMOVIDO</text>
</a>
</g>
</g>
<!-- 8&#45;&gt;2 -->
<g id="edge10" class="edge">
<title>8&#45;&gt;2</title>
<path fill="none" stroke="green" d="M217.48,-279.41C222.35,-326.13 228.74,-421.72 211,-499.91 207.48,-515.42 199.82,-530.95 191.75,-544.17"/>
<polygon fill="green" stroke="green" points="188.84,-542.22 186.37,-552.52 194.73,-546.01 188.84,-542.22"/>
<text xml:space="preserve" text-anchor="middle" x="233.72" y="-410.63" font-family="Times New Roman,serif" font-size="14.00">next</text>
</g>
<!-- 8&#45;&gt;4 -->
<g id="edge11" class="edge">
<title>8&#45;&gt;4</title>
<path fill="none" stroke="green" d="M184.21,-221.5C169.89,-206.93 153.49,-188.02 142.5,-168.47 125.01,-137.35 113.85,-98.17 107.38,-69.43"/>
<polygon fill="green" stroke="green" points="110.8,-68.72 105.28,-59.67 103.96,-70.19 110.8,-68.72"/>
<text xml:space="preserve" text-anchor="middle" x="167.25" y="-134.42" font-family="Times New Roman,serif" font-size="14.00">No_Next</text>
</g>
<!-- 8&#45;&gt;5 -->
<g id="edge4" class="edge">
<title>8&#45;&gt;5</title>
<path fill="none" stroke="green" d="M223.36,-220.74C227.61,-207.96 232.69,-192.65 237.27,-178.85"/>
<polygon fill="green" stroke="green" points="240.5,-180.21 240.33,-169.61 233.86,-178 240.5,-180.21"/>
<text xml:space="preserve" text-anchor="middle" x="238.28" y="-189.67" font-family="Times New Roman,serif" font-size="14.00">T</text>
</g>
<!-- 9&#45;&gt;2 -->
<g id="edge12" class="edge">
<title>9&#45;&gt;2</title>
<path fill="none" stroke="green" d="M103.31,-389.63C93.21,-418.23 82.2,-463.39 95.75,-499.91 102.33,-517.66 114.78,-534.12 127.32,-547.47"/>
<polygon fill="green" stroke="green" points="124.52,-549.62 134.03,-554.29 129.51,-544.71 124.52,-549.62"/>
<text xml:space="preserve" text-anchor="middle" x="107.38" y="-465.87" font-family="Times New Roman,serif" font-size="14.00">next</text>
</g>
<!-- 9&#45;&gt;4 -->
<g id="edge13" class="edge">
<title>9&#45;&gt;4</title>
<path fill="none" stroke="green" d="M102.64,-331.37C96.61,-316.17 90.03,-296.89 87,-278.95 74.62,-205.66 84.7,-118.67 92.68,-69.34"/>
<polygon fill="green" stroke="green" points="96.09,-70.16 94.29,-59.72 89.18,-69 96.09,-70.16"/>
<text xml:space="preserve" text-anchor="middle" x="106.11" y="-189.67" font-family="Times New Roman,serif" font-size="14.00">No_Next</text>
</g>
<!-- 9&#45;&gt;8 -->
<g id="edge5" class="edge">
<title>9&#45;&gt;8</title>
<path fill="none" stroke="green" d="M139.73,-332.34C152.27,-318.6 167.67,-301.72 181.19,-286.91"/>
<polygon fill="green" stroke="green" points="183.73,-289.32 187.88,-279.58 178.55,-284.61 183.73,-289.32"/>
<text xml:space="preserve" text-anchor="middle" x="174.55" y="-300.15" font-family="Times New Roman,serif" font-size="14.00">T</text>
</g>
</g>
</svg>
